<mxfile host="app.diagrams.net" agent="Mozilla/5.0 (Macintosh; Intel Mac OS X 10_15_7) AppleWebKit/537.36 (KHTML, like Gecko) Chrome/133.0.0.0 Safari/537.36 Edg/133.0.0.0" version="26.0.16">
  <diagram name="第 1 页" id="Po9Ez7BluTAXjHJc6wHh">
    <mxGraphModel dx="976" dy="611" grid="1" gridSize="10" guides="1" tooltips="1" connect="1" arrows="1" fold="1" page="1" pageScale="1" pageWidth="827" pageHeight="1169" math="0" shadow="0">
      <root>
        <mxCell id="0" />
        <mxCell id="1" parent="0" />
        <mxCell id="PmTtEUhIxG9IhuHngzG6-4" style="edgeStyle=orthogonalEdgeStyle;rounded=0;orthogonalLoop=1;jettySize=auto;html=1;entryX=0;entryY=0.5;entryDx=0;entryDy=0;" edge="1" parent="1" source="PmTtEUhIxG9IhuHngzG6-1" target="PmTtEUhIxG9IhuHngzG6-3">
          <mxGeometry relative="1" as="geometry" />
        </mxCell>
        <mxCell id="PmTtEUhIxG9IhuHngzG6-1" value="系统日志信息" style="ellipse;whiteSpace=wrap;html=1;shadow=1;fillColor=#e1d5e7;strokeColor=#9673a6;" vertex="1" parent="1">
          <mxGeometry x="70" y="180" width="100" height="60" as="geometry" />
        </mxCell>
        <mxCell id="PmTtEUhIxG9IhuHngzG6-5" style="edgeStyle=orthogonalEdgeStyle;rounded=0;orthogonalLoop=1;jettySize=auto;html=1;" edge="1" parent="1" source="PmTtEUhIxG9IhuHngzG6-3" target="PmTtEUhIxG9IhuHngzG6-6">
          <mxGeometry relative="1" as="geometry">
            <mxPoint x="450" y="210" as="targetPoint" />
          </mxGeometry>
        </mxCell>
        <mxCell id="PmTtEUhIxG9IhuHngzG6-16" value="消费者组 A" style="edgeLabel;html=1;align=center;verticalAlign=middle;resizable=0;points=[];" vertex="1" connectable="0" parent="PmTtEUhIxG9IhuHngzG6-5">
          <mxGeometry x="-0.0923" y="3" relative="1" as="geometry">
            <mxPoint as="offset" />
          </mxGeometry>
        </mxCell>
        <mxCell id="PmTtEUhIxG9IhuHngzG6-7" style="edgeStyle=orthogonalEdgeStyle;rounded=0;orthogonalLoop=1;jettySize=auto;html=1;entryX=0.5;entryY=0;entryDx=0;entryDy=0;" edge="1" parent="1" source="PmTtEUhIxG9IhuHngzG6-3" target="PmTtEUhIxG9IhuHngzG6-8">
          <mxGeometry relative="1" as="geometry">
            <mxPoint x="340" y="300" as="targetPoint" />
          </mxGeometry>
        </mxCell>
        <mxCell id="PmTtEUhIxG9IhuHngzG6-17" value="消费者组 B" style="edgeLabel;html=1;align=center;verticalAlign=middle;resizable=0;points=[];" vertex="1" connectable="0" parent="PmTtEUhIxG9IhuHngzG6-7">
          <mxGeometry x="-0.3714" y="3" relative="1" as="geometry">
            <mxPoint as="offset" />
          </mxGeometry>
        </mxCell>
        <mxCell id="PmTtEUhIxG9IhuHngzG6-3" value="&amp;nbsp;Kafka" style="rounded=1;whiteSpace=wrap;html=1;fillColor=#f8cecc;strokeColor=#b85450;glass=0;shadow=1;" vertex="1" parent="1">
          <mxGeometry x="280" y="180" width="120" height="60" as="geometry" />
        </mxCell>
        <mxCell id="PmTtEUhIxG9IhuHngzG6-6" value="ClickHouse" style="shape=cylinder3;whiteSpace=wrap;html=1;boundedLbl=1;backgroundOutline=1;size=15;rotation=0;fillColor=#fff2cc;strokeColor=#d6b656;shadow=1;" vertex="1" parent="1">
          <mxGeometry x="530" y="170" width="60" height="80" as="geometry" />
        </mxCell>
        <mxCell id="PmTtEUhIxG9IhuHngzG6-21" style="edgeStyle=orthogonalEdgeStyle;rounded=0;orthogonalLoop=1;jettySize=auto;html=1;entryX=0.5;entryY=0;entryDx=0;entryDy=0;" edge="1" parent="1" source="PmTtEUhIxG9IhuHngzG6-8" target="PmTtEUhIxG9IhuHngzG6-20">
          <mxGeometry relative="1" as="geometry" />
        </mxCell>
        <mxCell id="PmTtEUhIxG9IhuHngzG6-8" value="" style="rounded=0;whiteSpace=wrap;html=1;fillColor=#d5e8d4;strokeColor=#82b366;sketch=1;curveFitting=1;jiggle=2;shadow=0;" vertex="1" parent="1">
          <mxGeometry x="150" y="340" width="380" height="220" as="geometry" />
        </mxCell>
        <mxCell id="PmTtEUhIxG9IhuHngzG6-15" value="traceID、访问时间戳" style="rounded=0;whiteSpace=wrap;html=1;fillColor=#e1d5e7;strokeColor=#9673a6;shadow=1;" vertex="1" parent="1">
          <mxGeometry x="55" y="140" width="130" height="20" as="geometry" />
        </mxCell>
        <mxCell id="PmTtEUhIxG9IhuHngzG6-18" value="Flink" style="text;html=1;align=center;verticalAlign=middle;whiteSpace=wrap;rounded=0;" vertex="1" parent="1">
          <mxGeometry x="160" y="360" width="60" height="30" as="geometry" />
        </mxCell>
        <mxCell id="PmTtEUhIxG9IhuHngzG6-19" value="Text" style="text;html=1;align=center;verticalAlign=middle;whiteSpace=wrap;rounded=0;" vertex="1" parent="1">
          <mxGeometry x="440" y="420" width="60" height="30" as="geometry" />
        </mxCell>
        <mxCell id="PmTtEUhIxG9IhuHngzG6-20" value="接下来的操作" style="rounded=1;whiteSpace=wrap;html=1;fillColor=#fff2cc;strokeColor=#d6b656;shadow=1;" vertex="1" parent="1">
          <mxGeometry x="280" y="630" width="120" height="60" as="geometry" />
        </mxCell>
      </root>
    </mxGraphModel>
  </diagram>
</mxfile>
